<svg xmlns="http://www.w3.org/2000/svg" viewBox="0 0 100 125"><path style="text-indent:0;text-align:start;line-height:normal;text-transform:none;block-progression:tb;-inkscape-font-specification:Sans" d="M22 6c-4.947 0-9 4.053-9 9v70c0 4.947 4.053 9 9 9 1.337-.012 3.145-.92 4.594-1.75 1.954-1.01 53.02-32.523 54.687-33.625.938-.62 2.16-1.362 3.095-2.188 1.73-1.67 2.625-4 2.625-6.437 0-2.437-.895-4.768-2.625-6.438-.935-.825-2.157-1.567-3.094-2.187C79.615 40.273 28.55 8.76 26.595 7.75 25.144 6.92 23.337 6.012 22 6zm-.22 4c1.047 0 2.132.88 2.97 1.313 1.846.952 52.668 32.318 54.313 33.406 1.05.634 2.056 1.295 2.906 2.093.674.825 1.03 1.88 1.03 3.187s-.356 2.362-1.03 3.188c-.85.797-1.857 1.458-2.907 2.093-1.645 1.09-52.467 32.454-54.313 33.407-.838.433-1.923 1.313-2.97 1.313-2.677-.116-4.78-2.29-4.78-5V15c0-2.71 2.103-4.884 4.78-5z" color="#fff" fill="#fff" overflow="visible" font-family="Sans"/></svg>