<svg xmlns:dc="http://purl.org/dc/elements/1.1/" xmlns:cc="http://creativecommons.org/ns#" xmlns:rdf="http://www.w3.org/1999/02/22-rdf-syntax-ns#" xmlns:svg="http://www.w3.org/2000/svg" xmlns="http://www.w3.org/2000/svg" xmlns:sodipodi="http://sodipodi.sourceforge.net/DTD/sodipodi-0.dtd" xmlns:inkscape="http://www.inkscape.org/namespaces/inkscape" version="1.1" x="0px" y="0px" viewBox="0 0 100 125"><g transform="translate(0,-952.36218)"><path style="font-size:medium;font-style:normal;font-variant:normal;font-weight:normal;font-stretch:normal;text-indent:0;text-align:start;text-decoration:none;line-height:normal;letter-spacing:normal;word-spacing:normal;text-transform:none;direction:ltr;block-progression:tb;writing-mode:lr-tb;text-anchor:start;baseline-shift:baseline;opacity:1;color:#ffffff;fill:#ffffff;stroke:none;stroke-width:4;marker:none;visibility:visible;display:inline;overflow:visible;enable-background:accumulate;font-family:Sans;-inkscape-font-specification:Sans" d="M 22 6 C 17.053126 6 13 10.05313 13 15 L 13 50 L 13 85 C 13 89.9469 17.053126 94 22 94 C 23.33657 93.9882 25.145301 93.081 26.59375 92.25 C 28.548063 91.2412 79.614248 59.7272 81.28125 58.625 C 82.218477 58.005 83.439825 57.2628 84.375 56.4375 C 86.104841 54.7677 87 52.4371 87 50 C 87 47.56295 86.104841 45.23229 84.375 43.5625 C 83.439825 42.737186 82.218477 41.995044 81.28125 41.375 C 79.614248 40.27284 28.548063 8.75875 26.59375 7.75 C 25.145301 6.9190325 23.33657 6.0118107 22 6 z M 21.78125 10 C 22.82682 10 23.912122 10.880092 24.75 11.3125 C 26.596238 12.26547 77.417738 43.6313 79.0625 44.71875 C 80.112832 45.354372 81.119048 46.014853 81.96875 46.8125 C 82.643984 47.637647 83 48.693187 83 50 C 83 51.3068 82.643984 52.3623 81.96875 53.1875 C 81.119048 53.9851 80.112832 54.64555 79.0625 55.28125 C 77.417738 56.36865 26.596238 87.7345 24.75 88.6875 C 23.912122 89.1199 22.82682 90 21.78125 90 C 19.103401 89.8838 17 87.7092 17 85 L 17 50 L 17 15 C 17 12.290749 19.103401 10.116182 21.78125 10 z " transform="translate(0,952.36218)"/></g></svg>